<svg xmlns="http://www.w3.org/2000/svg" xmlns:xlink="http://www.w3.org/1999/xlink" width="500" zoomAndPan="magnify" viewBox="0 0 375 374.999991" height="500" preserveAspectRatio="xMidYMid meet" version="1.0"><defs><g/><clipPath id="beb0eed09f"><path d="M 97 16 L 274 16 L 274 199.566406 L 97 199.566406 Z M 97 16 " clip-rule="nonzero"/></clipPath></defs><g clip-path="url(#beb0eed09f)"><path fill="#dab88b" d="M 246.550781 130.304688 C 250.527344 130.304688 254.242188 129.253906 257.488281 127.425781 L 257.488281 176.851562 C 257.488281 182.851562 252.546875 187.78125 246.550781 187.78125 L 196.671875 187.78125 C 190.679688 187.78125 185.753906 182.851562 185.753906 176.851562 L 185.753906 130.644531 C 186.820312 131.261719 241.027344 130.304688 246.550781 130.304688 Z M 217.527344 85.816406 L 120.207031 85.816406 C 108.125 85.816406 98.386719 95.4375 97.996094 107.488281 C 97.996094 130.613281 97.996094 153.722656 97.996094 176.851562 C 97.996094 189.09375 107.980469 199.085938 120.207031 199.085938 L 246.550781 199.085938 C 258.78125 199.085938 268.761719 189.09375 268.761719 176.851562 C 268.761719 154.273438 270.007812 128.882812 268.714844 106.679688 C 268.457031 101.179688 264.722656 94.308594 260.765625 90.992188 C 279.699219 81.546875 276.742188 53.375 256.132812 48.199219 L 135.003906 17.730469 C 105.785156 10.390625 94.605469 54.910156 123.84375 62.269531 Z M 152.964844 57.953125 L 126.589844 51.320312 C 111.742188 47.585938 117.382812 24.945312 132.273438 28.695312 L 141.867188 31.089844 Z M 188.757812 66.960938 L 166.566406 61.378906 L 155.453125 34.519531 L 177.644531 40.097656 Z M 224.535156 75.953125 L 202.34375 70.371094 L 191.230469 43.511719 L 213.425781 49.089844 Z M 131.367188 97.121094 L 147.601562 119 L 120.207031 119 C 110.644531 119 105.542969 107.308594 112.503906 100.339844 C 117.347656 95.472656 125.34375 97.121094 131.367188 97.121094 Z M 161.605469 119 L 145.390625 97.121094 L 168.261719 97.121094 L 184.496094 119 Z M 205.152344 97.121094 L 221.386719 119 L 198.5 119 L 182.28125 97.121094 Z M 235.390625 119 L 219.175781 97.121094 L 246.550781 97.121094 C 252.351562 97.121094 257.359375 101.859375 257.472656 107.777344 C 258.570312 113.246094 252.125 119 246.550781 119 Z M 216.234375 143.9375 L 214.570312 149.164062 L 209.078125 149.148438 C 203.601562 149.148438 201.421875 156.164062 205.785156 159.320312 L 210.210938 162.554688 L 208.496094 167.777344 C 206.753906 173.164062 213.199219 177.433594 217.496094 173.824219 L 221.597656 170.816406 L 226.039062 174.066406 C 230.449219 177.269531 236.34375 172.902344 234.679688 167.777344 L 233 162.554688 L 237.425781 159.335938 C 242.03125 156.003906 239.316406 148.742188 233.726562 149.148438 L 228.640625 149.164062 L 226.960938 143.9375 C 225.28125 138.699219 217.898438 138.78125 216.234375 143.9375 Z M 247.652344 81.757812 L 238.136719 79.363281 L 227.023438 52.5 L 253.417969 59.148438 C 268.230469 62.867188 262.769531 85.332031 247.652344 81.757812 " fill-opacity="1" fill-rule="nonzero"/></g><g fill="#dab88b" fill-opacity="1"><g transform="translate(78.722869, 283.291291)"><g><path d="M 5.078125 -50.765625 L 21.03125 -50.765625 L 33 -15.59375 L 33.359375 -15.59375 L 45.328125 -50.765625 L 61.28125 -50.765625 L 61.28125 0 L 50.390625 0 L 50.390625 -35.890625 L 50.03125 -35.890625 L 37.703125 0 L 28.640625 0 L 16.3125 -35.890625 L 15.953125 -35.890625 L 15.953125 0 L 5.078125 0 Z M 5.078125 -50.765625 "/></g></g></g><g fill="#dab88b" fill-opacity="1"><g transform="translate(143.268859, 283.291291)"><g><path d="M 21.390625 0.71875 C 18.492188 0.71875 15.882812 0.273438 13.5625 -0.609375 C 11.238281 -1.503906 9.253906 -2.796875 7.609375 -4.484375 C 5.972656 -6.179688 4.71875 -8.265625 3.84375 -10.734375 C 2.96875 -13.203125 2.53125 -16.03125 2.53125 -19.21875 C 2.53125 -22.40625 2.96875 -25.234375 3.84375 -27.703125 C 4.71875 -30.171875 5.972656 -32.25 7.609375 -33.9375 C 9.253906 -35.625 11.238281 -36.914062 13.5625 -37.8125 C 15.882812 -38.707031 18.492188 -39.15625 21.390625 -39.15625 C 24.296875 -39.15625 26.90625 -38.707031 29.21875 -37.8125 C 31.539062 -36.914062 33.523438 -35.625 35.171875 -33.9375 C 36.816406 -32.25 38.070312 -30.171875 38.9375 -27.703125 C 39.8125 -25.234375 40.25 -22.40625 40.25 -19.21875 C 40.25 -16.03125 39.8125 -13.203125 38.9375 -10.734375 C 38.070312 -8.265625 36.816406 -6.179688 35.171875 -4.484375 C 33.523438 -2.796875 31.539062 -1.503906 29.21875 -0.609375 C 26.90625 0.273438 24.296875 0.71875 21.390625 0.71875 Z M 21.390625 -8.34375 C 22.546875 -8.34375 23.65625 -8.546875 24.71875 -8.953125 C 25.789062 -9.367188 26.722656 -10.019531 27.515625 -10.90625 C 28.316406 -11.800781 28.945312 -12.9375 29.40625 -14.3125 C 29.863281 -15.695312 30.09375 -17.332031 30.09375 -19.21875 C 30.09375 -21.101562 29.863281 -22.734375 29.40625 -24.109375 C 28.945312 -25.484375 28.316406 -26.617188 27.515625 -27.515625 C 26.722656 -28.410156 25.789062 -29.0625 24.71875 -29.46875 C 23.65625 -29.882812 22.546875 -30.09375 21.390625 -30.09375 C 20.234375 -30.09375 19.125 -29.882812 18.0625 -29.46875 C 17 -29.0625 16.066406 -28.410156 15.265625 -27.515625 C 14.460938 -26.617188 13.832031 -25.484375 13.375 -24.109375 C 12.914062 -22.734375 12.6875 -21.101562 12.6875 -19.21875 C 12.6875 -17.332031 12.914062 -15.695312 13.375 -14.3125 C 13.832031 -12.9375 14.460938 -11.800781 15.265625 -10.90625 C 16.066406 -10.019531 17 -9.367188 18.0625 -8.953125 C 19.125 -8.546875 20.234375 -8.34375 21.390625 -8.34375 Z M 21.390625 -8.34375 "/></g></g></g><g fill="#dab88b" fill-opacity="1"><g transform="translate(184.244677, 283.291291)"><g><path d="M 0 -38.4375 L 10.875 -38.4375 L 19.578125 -10.515625 L 19.9375 -10.515625 L 28.640625 -38.4375 L 39.515625 -38.4375 L 26.109375 0 L 13.421875 0 Z M 0 -38.4375 "/></g></g></g><g fill="#dab88b" fill-opacity="1"><g transform="translate(221.95693, 283.291291)"><g><path d="M 4.34375 -38.4375 L 14.5 -38.4375 L 14.5 0 L 4.34375 0 Z M 9.421875 -42.421875 C 7.785156 -42.421875 6.410156 -42.972656 5.296875 -44.078125 C 4.179688 -45.191406 3.625 -46.570312 3.625 -48.21875 C 3.625 -49.863281 4.179688 -51.242188 5.296875 -52.359375 C 6.410156 -53.472656 7.785156 -54.03125 9.421875 -54.03125 C 11.066406 -54.03125 12.445312 -53.472656 13.5625 -52.359375 C 14.675781 -51.242188 15.234375 -49.863281 15.234375 -48.21875 C 15.234375 -46.570312 14.675781 -45.191406 13.5625 -44.078125 C 12.445312 -42.972656 11.066406 -42.421875 9.421875 -42.421875 Z M 9.421875 -42.421875 "/></g></g></g><g fill="#dab88b" fill-opacity="1"><g transform="translate(238.999981, 283.291291)"><g><path d="M 21.390625 0.71875 C 18.492188 0.71875 15.882812 0.273438 13.5625 -0.609375 C 11.238281 -1.503906 9.253906 -2.796875 7.609375 -4.484375 C 5.972656 -6.179688 4.71875 -8.265625 3.84375 -10.734375 C 2.96875 -13.203125 2.53125 -16.03125 2.53125 -19.21875 C 2.53125 -22.40625 2.96875 -25.234375 3.84375 -27.703125 C 4.71875 -30.171875 5.972656 -32.25 7.609375 -33.9375 C 9.253906 -35.625 11.238281 -36.914062 13.5625 -37.8125 C 15.882812 -38.707031 18.492188 -39.15625 21.390625 -39.15625 C 24.191406 -39.15625 26.726562 -38.679688 29 -37.734375 C 31.28125 -36.796875 33.226562 -35.46875 34.84375 -33.75 C 36.457031 -32.039062 37.703125 -30.007812 38.578125 -27.65625 C 39.453125 -25.3125 39.890625 -22.738281 39.890625 -19.9375 C 39.890625 -19.40625 39.863281 -18.894531 39.8125 -18.40625 C 39.757812 -17.925781 39.710938 -17.492188 39.671875 -17.109375 C 39.617188 -16.679688 39.566406 -16.296875 39.515625 -15.953125 L 13.046875 -15.953125 C 13.441406 -13.773438 14.289062 -11.960938 15.59375 -10.515625 C 16.894531 -9.066406 18.828125 -8.34375 21.390625 -8.34375 C 23.367188 -8.34375 24.828125 -8.664062 25.765625 -9.3125 C 26.710938 -9.96875 27.550781 -10.851562 28.28125 -11.96875 L 39.15625 -11.96875 C 38.71875 -10.320312 38.050781 -8.738281 37.15625 -7.21875 C 36.269531 -5.695312 35.113281 -4.34375 33.6875 -3.15625 C 32.257812 -1.96875 30.53125 -1.023438 28.5 -0.328125 C 26.46875 0.367188 24.097656 0.71875 21.390625 0.71875 Z M 29.375 -23.5625 C 29.175781 -24.382812 28.867188 -25.179688 28.453125 -25.953125 C 28.046875 -26.734375 27.515625 -27.4375 26.859375 -28.0625 C 26.210938 -28.6875 25.425781 -29.179688 24.5 -29.546875 C 23.582031 -29.910156 22.546875 -30.09375 21.390625 -30.09375 C 19.023438 -30.09375 17.175781 -29.460938 15.84375 -28.203125 C 14.507812 -26.953125 13.578125 -25.40625 13.046875 -23.5625 Z M 29.375 -23.5625 "/></g></g></g><g fill="#dab88b" fill-opacity="1"><g transform="translate(279.602391, 283.291291)"><g/></g></g><g fill="#dab88b" fill-opacity="1"><g transform="translate(76.716198, 348.260199)"><g><path d="M 5.078125 -50.765625 L 26.109375 -50.765625 C 28.710938 -50.765625 31.113281 -50.328125 33.3125 -49.453125 C 35.519531 -48.585938 37.394531 -47.390625 38.9375 -45.859375 C 40.488281 -44.335938 41.695312 -42.5 42.5625 -40.34375 C 43.4375 -38.195312 43.875 -35.867188 43.875 -33.359375 C 43.875 -30.796875 43.4375 -28.445312 42.5625 -26.3125 C 41.695312 -24.1875 40.488281 -22.363281 38.9375 -20.84375 C 37.394531 -19.320312 35.519531 -18.125 33.3125 -17.25 C 31.113281 -16.382812 28.710938 -15.953125 26.109375 -15.953125 L 15.953125 -15.953125 L 15.953125 0 L 5.078125 0 Z M 25.015625 -25.75 C 27.578125 -25.75 29.546875 -26.421875 30.921875 -27.765625 C 32.304688 -29.117188 33 -30.984375 33 -33.359375 C 33 -35.722656 32.304688 -37.582031 30.921875 -38.9375 C 29.546875 -40.289062 27.578125 -40.96875 25.015625 -40.96875 L 15.953125 -40.96875 L 15.953125 -25.75 Z M 25.015625 -25.75 "/></g></g></g><g fill="#dab88b" fill-opacity="1"><g transform="translate(121.680828, 348.260199)"><g><path d="M 15.59375 0.71875 C 13.507812 0.71875 11.632812 0.414062 9.96875 -0.1875 C 8.300781 -0.789062 6.882812 -1.625 5.71875 -2.6875 C 4.5625 -3.75 3.679688 -5.003906 3.078125 -6.453125 C 2.472656 -7.898438 2.171875 -9.492188 2.171875 -11.234375 C 2.171875 -12.972656 2.484375 -14.566406 3.109375 -16.015625 C 3.742188 -17.472656 4.6875 -18.734375 5.9375 -19.796875 C 7.195312 -20.859375 8.742188 -21.691406 10.578125 -22.296875 C 12.421875 -22.898438 14.578125 -23.203125 17.046875 -23.203125 L 26.109375 -23.203125 L 26.109375 -25.015625 C 26.109375 -26.859375 25.523438 -28.222656 24.359375 -29.109375 C 23.203125 -30.003906 21.609375 -30.453125 19.578125 -30.453125 C 18.128906 -30.453125 16.894531 -30.140625 15.875 -29.515625 C 14.863281 -28.890625 14.164062 -28.113281 13.78125 -27.1875 L 3.625 -27.1875 C 3.96875 -28.738281 4.5625 -30.226562 5.40625 -31.65625 C 6.25 -33.082031 7.332031 -34.347656 8.65625 -35.453125 C 9.988281 -36.566406 11.585938 -37.460938 13.453125 -38.140625 C 15.316406 -38.816406 17.476562 -39.15625 19.9375 -39.15625 C 25.0625 -39.15625 29.0625 -37.921875 31.9375 -35.453125 C 34.820312 -32.992188 36.265625 -29.394531 36.265625 -24.65625 L 36.265625 0 L 27.5625 0 L 26.46875 -4.34375 L 26.109375 -4.34375 C 25.722656 -3.8125 25.238281 -3.242188 24.65625 -2.640625 C 24.070312 -2.035156 23.34375 -1.476562 22.46875 -0.96875 C 21.601562 -0.46875 20.601562 -0.0625 19.46875 0.25 C 18.332031 0.5625 17.039062 0.71875 15.59375 0.71875 Z M 18.125 -7.609375 C 20.5 -7.609375 22.421875 -8.273438 23.890625 -9.609375 C 25.367188 -10.941406 26.109375 -12.691406 26.109375 -14.859375 L 26.109375 -15.953125 L 17.40625 -15.953125 C 15.5625 -15.953125 14.253906 -15.566406 13.484375 -14.796875 C 12.710938 -14.023438 12.328125 -13.082031 12.328125 -11.96875 C 12.328125 -10.707031 12.785156 -9.664062 13.703125 -8.84375 C 14.617188 -8.019531 16.09375 -7.609375 18.125 -7.609375 Z M 18.125 -7.609375 "/></g></g></g><g fill="#dab88b" fill-opacity="1"><g transform="translate(160.118338, 348.260199)"><g><path d="M 4.71875 -50.765625 L 14.859375 -50.765625 L 14.859375 0 L 4.71875 0 Z M 4.71875 -50.765625 "/></g></g></g><g fill="#dab88b" fill-opacity="1"><g transform="translate(177.886617, 348.260199)"><g><path d="M 15.59375 0.71875 C 13.507812 0.71875 11.632812 0.414062 9.96875 -0.1875 C 8.300781 -0.789062 6.882812 -1.625 5.71875 -2.6875 C 4.5625 -3.75 3.679688 -5.003906 3.078125 -6.453125 C 2.472656 -7.898438 2.171875 -9.492188 2.171875 -11.234375 C 2.171875 -12.972656 2.484375 -14.566406 3.109375 -16.015625 C 3.742188 -17.472656 4.6875 -18.734375 5.9375 -19.796875 C 7.195312 -20.859375 8.742188 -21.691406 10.578125 -22.296875 C 12.421875 -22.898438 14.578125 -23.203125 17.046875 -23.203125 L 26.109375 -23.203125 L 26.109375 -25.015625 C 26.109375 -26.859375 25.523438 -28.222656 24.359375 -29.109375 C 23.203125 -30.003906 21.609375 -30.453125 19.578125 -30.453125 C 18.128906 -30.453125 16.894531 -30.140625 15.875 -29.515625 C 14.863281 -28.890625 14.164062 -28.113281 13.78125 -27.1875 L 3.625 -27.1875 C 3.96875 -28.738281 4.5625 -30.226562 5.40625 -31.65625 C 6.25 -33.082031 7.332031 -34.347656 8.65625 -35.453125 C 9.988281 -36.566406 11.585938 -37.460938 13.453125 -38.140625 C 15.316406 -38.816406 17.476562 -39.15625 19.9375 -39.15625 C 25.0625 -39.15625 29.0625 -37.921875 31.9375 -35.453125 C 34.820312 -32.992188 36.265625 -29.394531 36.265625 -24.65625 L 36.265625 0 L 27.5625 0 L 26.46875 -4.34375 L 26.109375 -4.34375 C 25.722656 -3.8125 25.238281 -3.242188 24.65625 -2.640625 C 24.070312 -2.035156 23.34375 -1.476562 22.46875 -0.96875 C 21.601562 -0.46875 20.601562 -0.0625 19.46875 0.25 C 18.332031 0.5625 17.039062 0.71875 15.59375 0.71875 Z M 18.125 -7.609375 C 20.5 -7.609375 22.421875 -8.273438 23.890625 -9.609375 C 25.367188 -10.941406 26.109375 -12.691406 26.109375 -14.859375 L 26.109375 -15.953125 L 17.40625 -15.953125 C 15.5625 -15.953125 14.253906 -15.566406 13.484375 -14.796875 C 12.710938 -14.023438 12.328125 -13.082031 12.328125 -11.96875 C 12.328125 -10.707031 12.785156 -9.664062 13.703125 -8.84375 C 14.617188 -8.019531 16.09375 -7.609375 18.125 -7.609375 Z M 18.125 -7.609375 "/></g></g></g><g fill="#dab88b" fill-opacity="1"><g transform="translate(216.324121, 348.260199)"><g><path d="M 21.390625 0.71875 C 18.492188 0.71875 15.882812 0.273438 13.5625 -0.609375 C 11.238281 -1.503906 9.253906 -2.796875 7.609375 -4.484375 C 5.972656 -6.179688 4.71875 -8.265625 3.84375 -10.734375 C 2.96875 -13.203125 2.53125 -16.03125 2.53125 -19.21875 C 2.53125 -22.40625 2.96875 -25.234375 3.84375 -27.703125 C 4.71875 -30.171875 5.972656 -32.25 7.609375 -33.9375 C 9.253906 -35.625 11.238281 -36.914062 13.5625 -37.8125 C 15.882812 -38.707031 18.492188 -39.15625 21.390625 -39.15625 C 24.097656 -39.15625 26.46875 -38.78125 28.5 -38.03125 C 30.53125 -37.28125 32.257812 -36.265625 33.6875 -34.984375 C 35.113281 -33.703125 36.269531 -32.226562 37.15625 -30.5625 C 38.050781 -28.894531 38.71875 -27.164062 39.15625 -25.375 L 29 -25.375 C 28.28125 -26.832031 27.335938 -27.984375 26.171875 -28.828125 C 25.015625 -29.671875 23.421875 -30.09375 21.390625 -30.09375 C 18.828125 -30.09375 16.734375 -29.1875 15.109375 -27.375 C 13.492188 -25.5625 12.6875 -22.84375 12.6875 -19.21875 C 12.6875 -15.59375 13.492188 -12.875 15.109375 -11.0625 C 16.734375 -9.25 18.828125 -8.34375 21.390625 -8.34375 C 23.421875 -8.34375 25.015625 -8.765625 26.171875 -9.609375 C 27.335938 -10.453125 28.28125 -11.597656 29 -13.046875 L 39.15625 -13.046875 C 38.71875 -11.210938 38.050781 -9.472656 37.15625 -7.828125 C 36.269531 -6.179688 35.113281 -4.71875 33.6875 -3.4375 C 32.257812 -2.15625 30.53125 -1.140625 28.5 -0.390625 C 26.46875 0.347656 24.097656 0.71875 21.390625 0.71875 Z M 21.390625 0.71875 "/></g></g></g><g fill="#dab88b" fill-opacity="1"><g transform="translate(255.84949, 348.260199)"><g><path d="M 21.390625 0.71875 C 18.492188 0.71875 15.882812 0.273438 13.5625 -0.609375 C 11.238281 -1.503906 9.253906 -2.796875 7.609375 -4.484375 C 5.972656 -6.179688 4.71875 -8.265625 3.84375 -10.734375 C 2.96875 -13.203125 2.53125 -16.03125 2.53125 -19.21875 C 2.53125 -22.40625 2.96875 -25.234375 3.84375 -27.703125 C 4.71875 -30.171875 5.972656 -32.25 7.609375 -33.9375 C 9.253906 -35.625 11.238281 -36.914062 13.5625 -37.8125 C 15.882812 -38.707031 18.492188 -39.15625 21.390625 -39.15625 C 24.191406 -39.15625 26.726562 -38.679688 29 -37.734375 C 31.28125 -36.796875 33.226562 -35.46875 34.84375 -33.75 C 36.457031 -32.039062 37.703125 -30.007812 38.578125 -27.65625 C 39.453125 -25.3125 39.890625 -22.738281 39.890625 -19.9375 C 39.890625 -19.40625 39.863281 -18.894531 39.8125 -18.40625 C 39.757812 -17.925781 39.710938 -17.492188 39.671875 -17.109375 C 39.617188 -16.679688 39.566406 -16.296875 39.515625 -15.953125 L 13.046875 -15.953125 C 13.441406 -13.773438 14.289062 -11.960938 15.59375 -10.515625 C 16.894531 -9.066406 18.828125 -8.34375 21.390625 -8.34375 C 23.367188 -8.34375 24.828125 -8.664062 25.765625 -9.3125 C 26.710938 -9.96875 27.550781 -10.851562 28.28125 -11.96875 L 39.15625 -11.96875 C 38.71875 -10.320312 38.050781 -8.738281 37.15625 -7.21875 C 36.269531 -5.695312 35.113281 -4.34375 33.6875 -3.15625 C 32.257812 -1.96875 30.53125 -1.023438 28.5 -0.328125 C 26.46875 0.367188 24.097656 0.71875 21.390625 0.71875 Z M 29.375 -23.5625 C 29.175781 -24.382812 28.867188 -25.179688 28.453125 -25.953125 C 28.046875 -26.734375 27.515625 -27.4375 26.859375 -28.0625 C 26.210938 -28.6875 25.425781 -29.179688 24.5 -29.546875 C 23.582031 -29.910156 22.546875 -30.09375 21.390625 -30.09375 C 19.023438 -30.09375 17.175781 -29.460938 15.84375 -28.203125 C 14.507812 -26.953125 13.578125 -25.40625 13.046875 -23.5625 Z M 29.375 -23.5625 "/></g></g></g></svg>