<svg xmlns="http://www.w3.org/2000/svg" xmlns:xlink="http://www.w3.org/1999/xlink" width="500" zoomAndPan="magnify" viewBox="0 0 375 374.999991" height="500" preserveAspectRatio="xMidYMid meet" version="1.0"><path fill="#dab88b" d="M 312.617188 236.019531 C 320.597656 236.019531 328.054688 233.910156 334.574219 230.242188 L 334.574219 329.476562 C 334.574219 341.523438 324.652344 351.429688 312.617188 351.429688 L 212.457031 351.429688 C 200.421875 351.429688 190.527344 341.523438 190.527344 329.476562 L 190.527344 236.703125 C 192.667969 237.9375 301.523438 236.019531 312.617188 236.019531 Z M 254.328125 146.691406 L 58.902344 146.691406 C 34.640625 146.691406 15.082031 166.011719 14.304688 190.203125 C 14.304688 236.636719 14.304688 283.042969 14.304688 329.476562 C 14.304688 354.058594 34.351562 374.125 58.902344 374.125 L 312.617188 374.125 C 337.171875 374.125 357.214844 354.058594 357.214844 329.476562 C 357.214844 284.144531 359.714844 233.164062 357.117188 188.578125 C 356.601562 177.539062 349.105469 163.738281 341.160156 157.082031 C 379.175781 138.117188 373.238281 81.550781 331.851562 71.160156 L 88.617188 9.980469 C 29.9375 -4.761719 7.492188 84.636719 66.203125 99.410156 Z M 124.683594 90.738281 L 71.714844 77.425781 C 41.90625 69.925781 53.226562 24.464844 83.132812 31.996094 L 102.402344 36.804688 Z M 196.5625 108.828125 L 151.996094 97.625 L 129.679688 43.6875 L 174.246094 54.890625 Z M 268.40625 126.882812 L 223.839844 115.679688 L 201.523438 61.742188 L 246.089844 72.945312 Z M 81.316406 169.386719 L 113.914062 213.324219 L 58.902344 213.324219 C 39.703125 213.324219 29.453125 189.84375 43.433594 175.851562 C 53.164062 166.074219 69.21875 169.386719 81.316406 169.386719 Z M 142.035156 213.324219 L 109.472656 169.386719 L 155.402344 169.386719 L 188 213.324219 Z M 229.484375 169.386719 L 262.082031 213.324219 L 216.121094 213.324219 L 183.554688 169.386719 Z M 290.203125 213.324219 L 257.636719 169.386719 L 312.617188 169.386719 C 324.261719 169.386719 334.316406 178.902344 334.542969 190.789062 C 336.75 201.761719 323.808594 213.324219 312.617188 213.324219 Z M 251.734375 263.394531 L 248.394531 273.882812 L 237.367188 273.851562 C 226.371094 273.851562 221.992188 287.945312 230.75 294.277344 L 239.636719 300.769531 L 236.199219 311.261719 C 232.695312 322.074219 245.636719 330.644531 254.265625 323.40625 L 262.503906 317.363281 L 271.421875 323.890625 C 280.277344 330.320312 292.117188 321.554688 288.777344 311.261719 L 285.402344 300.769531 L 294.289062 294.308594 C 303.535156 287.621094 298.085938 273.039062 286.863281 273.851562 L 276.644531 273.882812 L 273.273438 263.394531 C 269.898438 252.875 255.074219 253.035156 251.734375 263.394531 Z M 314.824219 138.539062 L 295.71875 133.734375 L 273.402344 79.796875 L 326.402344 93.144531 C 356.144531 100.609375 345.183594 145.714844 314.824219 138.539062 " fill-opacity="1" fill-rule="nonzero"/></svg>