<svg xmlns="http://www.w3.org/2000/svg" xmlns:xlink="http://www.w3.org/1999/xlink" width="500" zoomAndPan="magnify" viewBox="0 0 375 374.999991" height="500" preserveAspectRatio="xMidYMid meet" version="1.0"><defs><g/></defs><path fill="#dab88b" d="M 246.886719 130.472656 C 250.859375 130.472656 254.578125 129.425781 257.824219 127.605469 L 257.824219 176.832031 C 257.824219 182.808594 252.878906 187.722656 246.886719 187.722656 L 197.007812 187.722656 C 191.015625 187.722656 186.089844 182.808594 186.089844 176.832031 L 186.089844 130.808594 C 187.15625 131.421875 241.363281 130.472656 246.886719 130.472656 Z M 217.863281 86.15625 L 120.542969 86.15625 C 108.460938 86.15625 98.71875 95.742188 98.332031 107.742188 C 98.332031 130.777344 98.332031 153.796875 98.332031 176.832031 C 98.332031 189.027344 108.316406 198.984375 120.542969 198.984375 L 246.886719 198.984375 C 259.113281 198.984375 269.097656 189.027344 269.097656 176.832031 C 269.097656 154.347656 270.339844 129.054688 269.050781 106.9375 C 268.789062 101.460938 265.058594 94.613281 261.101562 91.3125 C 280.03125 81.902344 277.078125 53.84375 256.464844 48.6875 L 135.339844 18.335938 C 106.117188 11.023438 94.941406 55.371094 124.175781 62.703125 Z M 153.300781 58.402344 L 126.921875 51.796875 C 112.078125 48.074219 117.714844 25.523438 132.609375 29.257812 L 142.203125 31.644531 Z M 189.09375 67.375 L 166.898438 61.816406 L 155.789062 35.058594 L 177.980469 40.617188 Z M 224.871094 76.328125 L 202.679688 70.773438 L 191.566406 44.015625 L 213.757812 49.574219 Z M 131.703125 97.417969 L 147.9375 119.210938 L 120.542969 119.210938 C 110.980469 119.210938 105.875 107.566406 112.839844 100.621094 C 117.683594 95.773438 125.679688 97.417969 131.703125 97.417969 Z M 161.941406 119.210938 L 145.722656 97.417969 L 168.597656 97.417969 L 184.828125 119.210938 Z M 205.488281 97.417969 L 221.722656 119.210938 L 198.832031 119.210938 L 182.617188 97.417969 Z M 235.726562 119.210938 L 219.507812 97.417969 L 246.886719 97.417969 C 252.6875 97.417969 257.695312 102.136719 257.808594 108.03125 C 258.90625 113.476562 252.460938 119.210938 246.886719 119.210938 Z M 216.570312 144.050781 L 214.90625 149.253906 L 209.414062 149.238281 C 203.9375 149.238281 201.757812 156.230469 206.117188 159.371094 L 210.542969 162.59375 L 208.832031 167.796875 C 207.085938 173.160156 213.53125 177.414062 217.828125 173.820312 L 221.933594 170.824219 L 226.375 174.0625 C 230.785156 177.253906 236.679688 172.902344 235.015625 167.796875 L 233.335938 162.59375 L 237.761719 159.386719 C 242.363281 156.070312 239.652344 148.835938 234.0625 149.238281 L 228.972656 149.253906 L 227.292969 144.050781 C 225.613281 138.832031 218.234375 138.914062 216.570312 144.050781 Z M 247.984375 82.113281 L 238.472656 79.730469 L 227.359375 52.972656 L 253.753906 59.59375 C 268.5625 63.296875 263.105469 85.671875 247.984375 82.113281 " fill-opacity="1" fill-rule="nonzero"/><g fill="#000000" fill-opacity="1"><g transform="translate(79.115423, 282.94561)"><g><path d="M 5.0625 -50.59375 L 20.953125 -50.59375 L 32.875 -15.53125 L 33.25 -15.53125 L 45.171875 -50.59375 L 61.0625 -50.59375 L 61.0625 0 L 50.21875 0 L 50.21875 -35.765625 L 49.859375 -35.765625 L 37.578125 0 L 28.546875 0 L 16.265625 -35.765625 L 15.90625 -35.765625 L 15.90625 0 L 5.0625 0 Z M 5.0625 -50.59375 "/></g></g></g><g fill="#000000" fill-opacity="1"><g transform="translate(143.428485, 282.94561)"><g><path d="M 21.3125 0.71875 C 18.425781 0.71875 15.828125 0.273438 13.515625 -0.609375 C 11.203125 -1.503906 9.222656 -2.796875 7.578125 -4.484375 C 5.941406 -6.171875 4.691406 -8.238281 3.828125 -10.6875 C 2.960938 -13.144531 2.53125 -15.96875 2.53125 -19.15625 C 2.53125 -22.332031 2.960938 -25.148438 3.828125 -27.609375 C 4.691406 -30.066406 5.941406 -32.132812 7.578125 -33.8125 C 9.222656 -35.5 11.203125 -36.789062 13.515625 -37.6875 C 15.828125 -38.582031 18.425781 -39.03125 21.3125 -39.03125 C 24.207031 -39.03125 26.8125 -38.582031 29.125 -37.6875 C 31.4375 -36.789062 33.410156 -35.5 35.046875 -33.8125 C 36.679688 -32.132812 37.929688 -30.066406 38.796875 -27.609375 C 39.671875 -25.148438 40.109375 -22.332031 40.109375 -19.15625 C 40.109375 -15.96875 39.671875 -13.144531 38.796875 -10.6875 C 37.929688 -8.238281 36.679688 -6.171875 35.046875 -4.484375 C 33.410156 -2.796875 31.4375 -1.503906 29.125 -0.609375 C 26.8125 0.273438 24.207031 0.71875 21.3125 0.71875 Z M 21.3125 -8.3125 C 22.46875 -8.3125 23.578125 -8.515625 24.640625 -8.921875 C 25.703125 -9.335938 26.628906 -9.988281 27.421875 -10.875 C 28.222656 -11.769531 28.847656 -12.898438 29.296875 -14.265625 C 29.753906 -15.640625 29.984375 -17.269531 29.984375 -19.15625 C 29.984375 -21.03125 29.753906 -22.65625 29.296875 -24.03125 C 28.847656 -25.40625 28.222656 -26.535156 27.421875 -27.421875 C 26.628906 -28.316406 25.703125 -28.96875 24.640625 -29.375 C 23.578125 -29.78125 22.46875 -29.984375 21.3125 -29.984375 C 20.15625 -29.984375 19.046875 -29.78125 17.984375 -29.375 C 16.929688 -28.96875 16.003906 -28.316406 15.203125 -27.421875 C 14.410156 -26.535156 13.785156 -25.40625 13.328125 -24.03125 C 12.867188 -22.65625 12.640625 -21.03125 12.640625 -19.15625 C 12.640625 -17.269531 12.867188 -15.640625 13.328125 -14.265625 C 13.785156 -12.898438 14.410156 -11.769531 15.203125 -10.875 C 16.003906 -9.988281 16.929688 -9.335938 17.984375 -8.921875 C 19.046875 -8.515625 20.15625 -8.3125 21.3125 -8.3125 Z M 21.3125 -8.3125 "/></g></g></g><g fill="#000000" fill-opacity="1"><g transform="translate(184.256433, 282.94561)"><g><path d="M 0 -38.296875 L 10.84375 -38.296875 L 19.515625 -10.484375 L 19.875 -10.484375 L 28.546875 -38.296875 L 39.390625 -38.296875 L 26.015625 0 L 13.375 0 Z M 0 -38.296875 "/></g></g></g><g fill="#000000" fill-opacity="1"><g transform="translate(221.832594, 282.94561)"><g><path d="M 4.34375 -38.296875 L 14.453125 -38.296875 L 14.453125 0 L 4.34375 0 Z M 9.390625 -42.28125 C 7.753906 -42.28125 6.378906 -42.832031 5.265625 -43.9375 C 4.160156 -45.039062 3.609375 -46.414062 3.609375 -48.0625 C 3.609375 -49.695312 4.160156 -51.066406 5.265625 -52.171875 C 6.378906 -53.285156 7.753906 -53.84375 9.390625 -53.84375 C 11.035156 -53.84375 12.410156 -53.285156 13.515625 -52.171875 C 14.617188 -51.066406 15.171875 -49.695312 15.171875 -48.0625 C 15.171875 -46.414062 14.617188 -45.039062 13.515625 -43.9375 C 12.410156 -42.832031 11.035156 -42.28125 9.390625 -42.28125 Z M 9.390625 -42.28125 "/></g></g></g><g fill="#000000" fill-opacity="1"><g transform="translate(238.814142, 282.94561)"><g><path d="M 21.3125 0.71875 C 18.425781 0.71875 15.828125 0.273438 13.515625 -0.609375 C 11.203125 -1.503906 9.222656 -2.796875 7.578125 -4.484375 C 5.941406 -6.171875 4.691406 -8.238281 3.828125 -10.6875 C 2.960938 -13.144531 2.53125 -15.96875 2.53125 -19.15625 C 2.53125 -22.332031 2.960938 -25.148438 3.828125 -27.609375 C 4.691406 -30.066406 5.941406 -32.132812 7.578125 -33.8125 C 9.222656 -35.5 11.203125 -36.789062 13.515625 -37.6875 C 15.828125 -38.582031 18.425781 -39.03125 21.3125 -39.03125 C 24.113281 -39.03125 26.644531 -38.554688 28.90625 -37.609375 C 31.164062 -36.671875 33.101562 -35.347656 34.71875 -33.640625 C 36.332031 -31.929688 37.570312 -29.90625 38.4375 -27.5625 C 39.3125 -25.226562 39.75 -22.664062 39.75 -19.875 C 39.75 -19.34375 39.722656 -18.835938 39.671875 -18.359375 C 39.628906 -17.878906 39.582031 -17.445312 39.53125 -17.0625 C 39.476562 -16.625 39.429688 -16.238281 39.390625 -15.90625 L 13.015625 -15.90625 C 13.398438 -13.726562 14.238281 -11.914062 15.53125 -10.46875 C 16.832031 -9.03125 18.757812 -8.3125 21.3125 -8.3125 C 23.289062 -8.3125 24.75 -8.632812 25.6875 -9.28125 C 26.625 -9.9375 27.457031 -10.816406 28.1875 -11.921875 L 39.03125 -11.921875 C 38.59375 -10.285156 37.925781 -8.707031 37.03125 -7.1875 C 36.144531 -5.675781 34.988281 -4.328125 33.5625 -3.140625 C 32.144531 -1.960938 30.421875 -1.023438 28.390625 -0.328125 C 26.367188 0.367188 24.007812 0.71875 21.3125 0.71875 Z M 29.265625 -23.484375 C 29.078125 -24.304688 28.773438 -25.101562 28.359375 -25.875 C 27.953125 -26.644531 27.421875 -27.34375 26.765625 -27.96875 C 26.117188 -28.59375 25.335938 -29.082031 24.421875 -29.4375 C 23.503906 -29.800781 22.46875 -29.984375 21.3125 -29.984375 C 18.957031 -29.984375 17.113281 -29.359375 15.78125 -28.109375 C 14.457031 -26.859375 13.535156 -25.316406 13.015625 -23.484375 Z M 29.265625 -23.484375 "/></g></g></g><g fill="#000000" fill-opacity="1"><g transform="translate(279.270029, 282.94561)"><g/></g></g><g fill="#000000" fill-opacity="1"><g transform="translate(77.115994, 347.680064)"><g><path d="M 5.0625 -50.59375 L 26.015625 -50.59375 C 28.617188 -50.59375 31.015625 -50.15625 33.203125 -49.28125 C 35.398438 -48.414062 37.269531 -47.222656 38.8125 -45.703125 C 40.351562 -44.191406 41.554688 -42.363281 42.421875 -40.21875 C 43.285156 -38.070312 43.71875 -35.75 43.71875 -33.25 C 43.71875 -30.6875 43.285156 -28.34375 42.421875 -26.21875 C 41.554688 -24.101562 40.351562 -22.285156 38.8125 -20.765625 C 37.269531 -19.253906 35.398438 -18.066406 33.203125 -17.203125 C 31.015625 -16.335938 28.617188 -15.90625 26.015625 -15.90625 L 15.90625 -15.90625 L 15.90625 0 L 5.0625 0 Z M 24.9375 -25.65625 C 27.488281 -25.65625 29.445312 -26.328125 30.8125 -27.671875 C 32.1875 -29.023438 32.875 -30.882812 32.875 -33.25 C 32.875 -35.601562 32.1875 -37.453125 30.8125 -38.796875 C 29.445312 -40.148438 27.488281 -40.828125 24.9375 -40.828125 L 15.90625 -40.828125 L 15.90625 -25.65625 Z M 24.9375 -25.65625 "/></g></g></g><g fill="#000000" fill-opacity="1"><g transform="translate(121.918359, 347.680064)"><g><path d="M 15.53125 0.71875 C 13.46875 0.71875 11.601562 0.421875 9.9375 -0.171875 C 8.269531 -0.773438 6.859375 -1.609375 5.703125 -2.671875 C 4.546875 -3.734375 3.664062 -4.984375 3.0625 -6.421875 C 2.46875 -7.867188 2.171875 -9.460938 2.171875 -11.203125 C 2.171875 -12.929688 2.484375 -14.519531 3.109375 -15.96875 C 3.734375 -17.414062 4.671875 -18.664062 5.921875 -19.71875 C 7.179688 -20.78125 8.722656 -21.613281 10.546875 -22.21875 C 12.378906 -22.820312 14.523438 -23.125 16.984375 -23.125 L 26.015625 -23.125 L 26.015625 -24.9375 C 26.015625 -26.757812 25.4375 -28.117188 24.28125 -29.015625 C 23.125 -29.910156 21.535156 -30.359375 19.515625 -30.359375 C 18.066406 -30.359375 16.835938 -30.039062 15.828125 -29.40625 C 14.816406 -28.78125 14.117188 -28.007812 13.734375 -27.09375 L 3.609375 -27.09375 C 3.953125 -28.632812 4.546875 -30.113281 5.390625 -31.53125 C 6.234375 -32.957031 7.316406 -34.222656 8.640625 -35.328125 C 9.960938 -36.441406 11.550781 -37.335938 13.40625 -38.015625 C 15.257812 -38.691406 17.414062 -39.03125 19.875 -39.03125 C 24.976562 -39.03125 28.960938 -37.800781 31.828125 -35.34375 C 34.703125 -32.882812 36.140625 -29.296875 36.140625 -24.578125 L 36.140625 0 L 27.46875 0 L 26.375 -4.34375 L 26.015625 -4.34375 C 25.628906 -3.8125 25.144531 -3.242188 24.5625 -2.640625 C 23.988281 -2.035156 23.269531 -1.476562 22.40625 -0.96875 C 21.539062 -0.46875 20.539062 -0.0625 19.40625 0.25 C 18.269531 0.5625 16.976562 0.71875 15.53125 0.71875 Z M 18.0625 -7.59375 C 20.425781 -7.59375 22.34375 -8.253906 23.8125 -9.578125 C 25.28125 -10.898438 26.015625 -12.644531 26.015625 -14.8125 L 26.015625 -15.90625 L 17.34375 -15.90625 C 15.507812 -15.90625 14.207031 -15.519531 13.4375 -14.75 C 12.664062 -13.976562 12.28125 -13.035156 12.28125 -11.921875 C 12.28125 -10.671875 12.738281 -9.632812 13.65625 -8.8125 C 14.570312 -8 16.039062 -7.59375 18.0625 -7.59375 Z M 18.0625 -7.59375 "/></g></g></g><g fill="#000000" fill-opacity="1"><g transform="translate(160.21716, 347.680064)"><g><path d="M 4.703125 -50.59375 L 14.8125 -50.59375 L 14.8125 0 L 4.703125 0 Z M 4.703125 -50.59375 "/></g></g></g><g fill="#000000" fill-opacity="1"><g transform="translate(177.921318, 347.680064)"><g><path d="M 15.53125 0.71875 C 13.46875 0.71875 11.601562 0.421875 9.9375 -0.171875 C 8.269531 -0.773438 6.859375 -1.609375 5.703125 -2.671875 C 4.546875 -3.734375 3.664062 -4.984375 3.0625 -6.421875 C 2.46875 -7.867188 2.171875 -9.460938 2.171875 -11.203125 C 2.171875 -12.929688 2.484375 -14.519531 3.109375 -15.96875 C 3.734375 -17.414062 4.671875 -18.664062 5.921875 -19.71875 C 7.179688 -20.78125 8.722656 -21.613281 10.546875 -22.21875 C 12.378906 -22.820312 14.523438 -23.125 16.984375 -23.125 L 26.015625 -23.125 L 26.015625 -24.9375 C 26.015625 -26.757812 25.4375 -28.117188 24.28125 -29.015625 C 23.125 -29.910156 21.535156 -30.359375 19.515625 -30.359375 C 18.066406 -30.359375 16.835938 -30.039062 15.828125 -29.40625 C 14.816406 -28.78125 14.117188 -28.007812 13.734375 -27.09375 L 3.609375 -27.09375 C 3.953125 -28.632812 4.546875 -30.113281 5.390625 -31.53125 C 6.234375 -32.957031 7.316406 -34.222656 8.640625 -35.328125 C 9.960938 -36.441406 11.550781 -37.335938 13.40625 -38.015625 C 15.257812 -38.691406 17.414062 -39.03125 19.875 -39.03125 C 24.976562 -39.03125 28.960938 -37.800781 31.828125 -35.34375 C 34.703125 -32.882812 36.140625 -29.296875 36.140625 -24.578125 L 36.140625 0 L 27.46875 0 L 26.375 -4.34375 L 26.015625 -4.34375 C 25.628906 -3.8125 25.144531 -3.242188 24.5625 -2.640625 C 23.988281 -2.035156 23.269531 -1.476562 22.40625 -0.96875 C 21.539062 -0.46875 20.539062 -0.0625 19.40625 0.25 C 18.269531 0.5625 16.976562 0.71875 15.53125 0.71875 Z M 18.0625 -7.59375 C 20.425781 -7.59375 22.34375 -8.253906 23.8125 -9.578125 C 25.28125 -10.898438 26.015625 -12.644531 26.015625 -14.8125 L 26.015625 -15.90625 L 17.34375 -15.90625 C 15.507812 -15.90625 14.207031 -15.519531 13.4375 -14.75 C 12.664062 -13.976562 12.28125 -13.035156 12.28125 -11.921875 C 12.28125 -10.671875 12.738281 -9.632812 13.65625 -8.8125 C 14.570312 -8 16.039062 -7.59375 18.0625 -7.59375 Z M 18.0625 -7.59375 "/></g></g></g><g fill="#000000" fill-opacity="1"><g transform="translate(216.220112, 347.680064)"><g><path d="M 21.3125 0.71875 C 18.425781 0.71875 15.828125 0.273438 13.515625 -0.609375 C 11.203125 -1.503906 9.222656 -2.796875 7.578125 -4.484375 C 5.941406 -6.171875 4.691406 -8.238281 3.828125 -10.6875 C 2.960938 -13.144531 2.53125 -15.96875 2.53125 -19.15625 C 2.53125 -22.332031 2.960938 -25.148438 3.828125 -27.609375 C 4.691406 -30.066406 5.941406 -32.132812 7.578125 -33.8125 C 9.222656 -35.5 11.203125 -36.789062 13.515625 -37.6875 C 15.828125 -38.582031 18.425781 -39.03125 21.3125 -39.03125 C 24.007812 -39.03125 26.367188 -38.65625 28.390625 -37.90625 C 30.421875 -37.15625 32.144531 -36.140625 33.5625 -34.859375 C 34.988281 -33.585938 36.144531 -32.117188 37.03125 -30.453125 C 37.925781 -28.796875 38.59375 -27.078125 39.03125 -25.296875 L 28.90625 -25.296875 C 28.1875 -26.742188 27.25 -27.882812 26.09375 -28.71875 C 24.9375 -29.5625 23.34375 -29.984375 21.3125 -29.984375 C 18.757812 -29.984375 16.675781 -29.082031 15.0625 -27.28125 C 13.445312 -25.476562 12.640625 -22.769531 12.640625 -19.15625 C 12.640625 -15.539062 13.445312 -12.828125 15.0625 -11.015625 C 16.675781 -9.210938 18.757812 -8.3125 21.3125 -8.3125 C 23.34375 -8.3125 24.9375 -8.734375 26.09375 -9.578125 C 27.25 -10.421875 28.1875 -11.566406 28.90625 -13.015625 L 39.03125 -13.015625 C 38.59375 -11.179688 37.925781 -9.441406 37.03125 -7.796875 C 36.144531 -6.160156 34.988281 -4.703125 33.5625 -3.421875 C 32.144531 -2.148438 30.421875 -1.140625 28.390625 -0.390625 C 26.367188 0.347656 24.007812 0.71875 21.3125 0.71875 Z M 21.3125 0.71875 "/></g></g></g><g fill="#000000" fill-opacity="1"><g transform="translate(255.602846, 347.680064)"><g><path d="M 21.3125 0.71875 C 18.425781 0.71875 15.828125 0.273438 13.515625 -0.609375 C 11.203125 -1.503906 9.222656 -2.796875 7.578125 -4.484375 C 5.941406 -6.171875 4.691406 -8.238281 3.828125 -10.6875 C 2.960938 -13.144531 2.53125 -15.96875 2.53125 -19.15625 C 2.53125 -22.332031 2.960938 -25.148438 3.828125 -27.609375 C 4.691406 -30.066406 5.941406 -32.132812 7.578125 -33.8125 C 9.222656 -35.5 11.203125 -36.789062 13.515625 -37.6875 C 15.828125 -38.582031 18.425781 -39.03125 21.3125 -39.03125 C 24.113281 -39.03125 26.644531 -38.554688 28.90625 -37.609375 C 31.164062 -36.671875 33.101562 -35.347656 34.71875 -33.640625 C 36.332031 -31.929688 37.570312 -29.90625 38.4375 -27.5625 C 39.3125 -25.226562 39.75 -22.664062 39.75 -19.875 C 39.75 -19.34375 39.722656 -18.835938 39.671875 -18.359375 C 39.628906 -17.878906 39.582031 -17.445312 39.53125 -17.0625 C 39.476562 -16.625 39.429688 -16.238281 39.390625 -15.90625 L 13.015625 -15.90625 C 13.398438 -13.726562 14.238281 -11.914062 15.53125 -10.46875 C 16.832031 -9.03125 18.757812 -8.3125 21.3125 -8.3125 C 23.289062 -8.3125 24.75 -8.632812 25.6875 -9.28125 C 26.625 -9.9375 27.457031 -10.816406 28.1875 -11.921875 L 39.03125 -11.921875 C 38.59375 -10.285156 37.925781 -8.707031 37.03125 -7.1875 C 36.144531 -5.675781 34.988281 -4.328125 33.5625 -3.140625 C 32.144531 -1.960938 30.421875 -1.023438 28.390625 -0.328125 C 26.367188 0.367188 24.007812 0.71875 21.3125 0.71875 Z M 29.265625 -23.484375 C 29.078125 -24.304688 28.773438 -25.101562 28.359375 -25.875 C 27.953125 -26.644531 27.421875 -27.34375 26.765625 -27.96875 C 26.117188 -28.59375 25.335938 -29.082031 24.421875 -29.4375 C 23.503906 -29.800781 22.46875 -29.984375 21.3125 -29.984375 C 18.957031 -29.984375 17.113281 -29.359375 15.78125 -28.109375 C 14.457031 -26.859375 13.535156 -25.316406 13.015625 -23.484375 Z M 29.265625 -23.484375 "/></g></g></g></svg>